<svg width="32" height="32" viewBox="0 0 32 32" fill="none" xmlns="http://www.w3.org/2000/svg">
<path d="M15.2933 5.12148C15.4808 4.93422 15.735 4.82903 16 4.82903C16.265 4.82903 16.5192 4.93422 16.7067 5.12148L28.2933 16.7082C28.3856 16.8036 28.496 16.8797 28.618 16.9321C28.7401 16.9844 28.8713 17.012 29.0041 17.0131C29.1369 17.0142 29.2685 16.9888 29.3914 16.9384C29.5143 16.8881 29.6259 16.8138 29.7197 16.7199C29.8136 16.6259 29.8878 16.5142 29.938 16.3913C29.9882 16.2684 30.0135 16.1367 30.0123 16.0039C30.011 15.8712 29.9834 15.74 29.9309 15.618C29.8785 15.496 29.8022 15.3857 29.7067 15.2935L18.1213 3.70682C17.8428 3.42824 17.512 3.20726 17.1481 3.05649C16.7841 2.90572 16.394 2.82812 16 2.82812C15.606 2.82813 15.2159 2.90572 14.8519 3.05649C14.488 3.20726 14.1572 3.42824 13.8787 3.70682L2.29201 15.2935C2.19654 15.3858 2.12041 15.4962 2.06806 15.6182C2.01571 15.7402 1.98819 15.8714 1.98709 16.0042C1.986 16.137 2.01137 16.2687 2.06171 16.3915C2.11205 16.5144 2.18635 16.626 2.28029 16.7199C2.37422 16.8137 2.48591 16.8879 2.60883 16.9382C2.73175 16.9884 2.86344 17.0136 2.99622 17.0124C3.129 17.0112 3.2602 16.9835 3.38218 16.9311C3.50416 16.8786 3.61447 16.8024 3.70667 16.7068L15.2933 5.12148Z" fill="black"/>
<path d="M16 7.24282L26.8787 18.1215C26.9187 18.1615 26.9587 18.1988 27 18.2362V26.5002C27 27.8801 25.88 29.0002 24.5 29.0002H20C19.7348 29.0002 19.4804 28.8948 19.2929 28.7073C19.1054 28.5197 19 28.2654 19 28.0002V22.0002C19 21.7349 18.8946 21.4806 18.7071 21.293C18.5196 21.1055 18.2652 21.0002 18 21.0002H14C13.7348 21.0002 13.4804 21.1055 13.2929 21.293C13.1054 21.4806 13 21.7349 13 22.0002V28.0002C13 28.2654 12.8946 28.5197 12.7071 28.7073C12.5196 28.8948 12.2652 29.0002 12 29.0002H7.5C6.83696 29.0002 6.20108 28.7368 5.73224 28.2679C5.2634 27.7991 5.00001 27.1632 5.00001 26.5002V18.2362C5.04149 18.199 5.08195 18.1608 5.12134 18.1215L16 7.24282Z" fill="black"/>
</svg>
