<svg width="32" height="32" viewBox="0 0 32 32" fill="none" xmlns="http://www.w3.org/2000/svg">
<path d="M25.3413 4.94005C25.5906 4.84953 25.7938 4.66367 25.906 4.42338C26.0183 4.18308 26.0305 3.90802 25.94 3.65872C25.8495 3.40942 25.6636 3.20629 25.4233 3.09401C25.183 2.98174 24.908 2.96953 24.6587 3.06005L7.99999 9.11739V4.00005C7.99999 3.73484 7.89464 3.48048 7.7071 3.29295C7.51956 3.10541 7.26521 3.00005 6.99999 3.00005H4.99999C4.73478 3.00005 4.48042 3.10541 4.29289 3.29295C4.10535 3.48048 3.99999 3.73484 3.99999 4.00005V10.5734L2.65866 11.0601C2.40936 11.1506 2.20623 11.3364 2.09395 11.5767C1.98168 11.817 1.96947 12.0921 2.05999 12.3414C2.15052 12.5907 2.33638 12.7938 2.57667 12.9061C2.81697 13.0184 3.09202 13.0306 3.34133 12.9401L25.3413 4.94005Z" fill="black"/>
<path fill-rule="evenodd" clip-rule="evenodd" d="M4.02533 14.8187L24 7.55605V12.1174L29.3413 14.0601C29.5906 14.1506 29.7938 14.3364 29.906 14.5767C30.0183 14.817 30.0305 15.0921 29.94 15.3414C29.8495 15.5907 29.6636 15.7938 29.4233 15.9061C29.183 16.0184 28.908 16.0306 28.6587 15.9401L28 15.7001V27.0001H29C29.2652 27.0001 29.5196 27.1054 29.7071 27.2929C29.8946 27.4805 30 27.7348 30 28.0001C30 28.2653 29.8946 28.5196 29.7071 28.7072C29.5196 28.8947 29.2652 29.0001 29 29.0001H2.99999C2.73478 29.0001 2.48042 28.8947 2.29289 28.7072C2.10535 28.5196 1.99999 28.2653 1.99999 28.0001C1.99999 27.7348 2.10535 27.4805 2.29289 27.2929C2.48042 27.1054 2.73478 27.0001 2.99999 27.0001H3.99999V14.8281L4.02533 14.8187ZM24 27.0001V14.2454L26 14.9734V27.0001H24ZM12 19.0001C11.7348 19.0001 11.4804 19.1054 11.2929 19.2929C11.1054 19.4805 11 19.7348 11 20.0001V26.0001C11 26.5521 11.448 27.0001 12 27.0001H16C16.2652 27.0001 16.5196 26.8947 16.7071 26.7072C16.8946 26.5196 17 26.2653 17 26.0001V20.0001C17 19.7348 16.8946 19.4805 16.7071 19.2929C16.5196 19.1054 16.2652 19.0001 16 19.0001H12Z" fill="black"/>
</svg>
