<svg width="32" height="32" viewBox="0 0 32 32" fill="none" xmlns="http://www.w3.org/2000/svg">
<path d="M26.56 17.0609L16.3025 27.3109C14.8955 28.7174 12.9875 29.5074 10.998 29.507C9.00863 29.5066 7.10084 28.716 5.69437 27.309C4.28789 25.9021 3.49794 23.994 3.49829 22.0046C3.49864 20.0152 4.28927 18.1074 5.69624 16.7009L17.9662 4.46467C18.9043 3.52713 20.1763 3.00063 21.5026 3.00098C22.1593 3.00115 22.8095 3.13067 23.4161 3.38213C24.0227 3.63359 24.5739 4.00208 25.0381 4.46655C25.5023 4.93102 25.8705 5.48237 26.1217 6.08914C26.3728 6.6959 26.502 7.34619 26.5018 8.00287C26.5016 8.65956 26.3721 9.30978 26.1207 9.91641C25.8692 10.523 25.5007 11.0742 25.0362 11.5384L25.015 11.5584L13.04 23.0859C12.898 23.2225 12.7305 23.3298 12.5471 23.4016C12.3636 23.4734 12.1678 23.5085 11.9708 23.5046C11.7738 23.5008 11.5796 23.4582 11.399 23.3793C11.2185 23.3004 11.0553 23.1867 10.9187 23.0447C10.7822 22.9027 10.6749 22.7352 10.6031 22.5517C10.5312 22.3683 10.4962 22.1725 10.5 21.9755C10.5039 21.7785 10.5465 21.5842 10.6254 21.4037C10.7043 21.2232 10.818 21.06 10.96 20.9234L22.9237 9.40842C23.2977 9.03215 23.5069 8.52273 23.5052 7.99224C23.5036 7.46174 23.2913 6.95363 22.915 6.57967C22.7287 6.39451 22.5077 6.24786 22.2647 6.14808C22.0217 6.04831 21.7615 5.99738 21.4988 5.99819C20.9683 5.99984 20.4602 6.21215 20.0862 6.58842L7.81624 18.8209C6.97236 19.6651 6.4984 20.81 6.49863 22.0037C6.49875 22.5947 6.61528 23.18 6.84157 23.726C7.06786 24.272 7.39948 24.7681 7.81749 25.1859C8.23551 25.6038 8.73173 25.9352 9.27783 26.1613C9.82393 26.3873 10.4092 26.5036 11.0003 26.5035C12.1939 26.5033 13.3386 26.0289 14.1825 25.1847L24.44 14.9347C24.5795 14.7951 24.7452 14.6845 24.9275 14.6089C25.1098 14.5334 25.3052 14.4946 25.5025 14.4946C25.6998 14.4946 25.8952 14.5334 26.0775 14.6089C26.2598 14.6845 26.4255 14.7951 26.565 14.9347C26.7045 15.0742 26.8152 15.2398 26.8907 15.4222C26.9662 15.6045 27.0051 15.7998 27.0051 15.9972C27.0051 16.1945 26.9662 16.3899 26.8907 16.5722C26.8152 16.7545 26.7045 16.9201 26.565 17.0597L26.56 17.0609Z" fill="black"/>
</svg>
