<svg width="1440" height="70" viewBox="0 0 1440 70" fill="none" xmlns="http://www.w3.org/2000/svg">
<path d="M1441 35L1437.39 34.4974L1433.78 33.9949L1430.17 33.4926L1426.55 32.9907L1422.94 32.4893L1419.33 31.9885L1415.72 31.4885L1412.11 30.9893L1408.5 30.4912L1404.88 29.9941L1401.27 29.4983L1397.66 29.0038L1394.05 28.5108L1390.44 28.0194L1386.83 27.5298L1383.22 27.0419L1379.6 26.5561L1375.99 26.0723L1372.38 25.5907L1368.77 25.1115L1365.16 24.6346L1361.55 24.1604L1357.93 23.6888L1354.32 23.22L1350.71 22.7541L1347.1 22.2913L1343.49 21.8315L1339.88 21.3751L1336.27 20.9219L1332.65 20.4723L1329.04 20.0262L1325.43 19.5839L1321.82 19.1453L1318.21 18.7107L1314.6 18.28L1310.98 17.8535L1307.37 17.4313L1303.76 17.0133L1300.15 16.5998L1296.54 16.1909L1292.93 15.7866L1289.32 15.387L1285.7 14.9922L1282.09 14.6024L1278.48 14.2177L1274.87 13.838L1271.26 13.4636L1267.65 13.0945L1264.04 12.7308L1260.42 12.3726L1256.81 12.02L1253.2 11.673L1249.59 11.3318L1245.98 10.9964L1242.37 10.667L1238.75 10.3436L1235.14 10.0262L1231.53 9.71504L1227.92 9.41009L1224.31 9.11146L1220.7 8.81921L1217.09 8.53342L1213.47 8.25416L1209.86 7.98151L1206.25 7.71551L1202.64 7.45626L1199.03 7.20379L1195.42 6.95819L1191.8 6.7195L1188.19 6.48779L1184.58 6.26312L1180.97 6.04553L1177.36 5.8351L1173.75 5.63185L1170.14 5.43586L1166.52 5.24715L1162.91 5.06579L1159.3 4.89182L1155.69 4.72527L1152.08 4.56619L1148.47 4.41462L1144.85 4.2706L1141.24 4.13416L1137.63 4.00534L1134.02 3.88416L1130.41 3.77066L1126.8 3.66487L1123.19 3.56681L1119.57 3.4765L1115.96 3.39397L1112.35 3.31924L1108.74 3.25233L1105.13 3.19325L1101.52 3.14202L1097.9 3.09865L1094.29 3.06314L1090.68 3.03552L1087.07 3.01579L1083.46 3.00395L1079.85 3L1076.24 3.00395L1072.62 3.01579L1069.01 3.03552L1065.4 3.06314L1061.79 3.09865L1058.18 3.14202L1054.57 3.19325L1050.95 3.25233L1047.34 3.31924L1043.73 3.39397L1040.12 3.4765L1036.51 3.56681L1032.9 3.66487L1029.29 3.77066L1025.67 3.88416L1022.06 4.00534L1018.45 4.13416L1014.84 4.2706L1011.23 4.41462L1007.62 4.56619L1004.01 4.72527L1000.39 4.89182L996.782 5.06579L993.17 5.24715L989.559 5.43586L985.947 5.63185L982.336 5.8351L978.724 6.04553L975.113 6.26312L971.501 6.48779L967.89 6.7195L964.278 6.95819L960.667 7.20379L957.055 7.45626L953.444 7.71551L949.832 7.98151L946.221 8.25416L942.609 8.53342L938.997 8.81921L935.386 9.11146L931.774 9.41009L928.163 9.71504L924.551 10.0262L920.94 10.3436L917.328 10.667L913.717 10.9964L910.105 11.3318L906.494 11.673L902.882 12.02L899.271 12.3726L895.659 12.7308L892.048 13.0945L888.436 13.4636L884.825 13.838L881.213 14.2177L877.601 14.6024L873.99 14.9922L870.378 15.387L866.767 15.7866L863.155 16.1909L859.544 16.5998L855.932 17.0133L852.321 17.4313L848.709 17.8535L845.098 18.28L841.486 18.7107L837.875 19.1453L834.263 19.5839L830.652 20.0262L827.04 20.4723L823.429 20.9219L819.817 21.3751L816.206 21.8315L812.594 22.2913L808.982 22.7541L805.371 23.22L801.759 23.6888L798.148 24.1604L794.536 24.6346L790.925 25.1115L787.313 25.5907L783.702 26.0723L780.09 26.5561L776.479 27.0419L772.867 27.5298L769.256 28.0194L765.644 28.5108L762.033 29.0038L758.421 29.4983L754.81 29.9941L751.198 30.4912L747.586 30.9893L743.975 31.4885L740.363 31.9885L736.752 32.4893L733.14 32.9907L729.529 33.4926L725.917 33.9949L722.306 34.4974L718.694 35L715.083 35.5026L711.471 36.0051L707.86 36.5074L704.248 37.0093L700.637 37.5107L697.025 38.0115L693.414 38.5115L689.802 39.0107L686.19 39.5088L682.579 40.0059L678.967 40.5017L675.356 40.9962L671.744 41.4892L668.133 41.9806L664.521 42.4703L660.91 42.9581L657.298 43.4439L653.687 43.9277L650.075 44.4093L646.464 44.8885L642.852 45.3654L639.241 45.8396L635.629 46.3112L632.018 46.78L628.406 47.2459L624.794 47.7087L621.183 48.1685L617.571 48.6249L613.96 49.0781L610.348 49.5277L606.737 49.9738L603.125 50.4161L599.514 50.8547L595.902 51.2893L592.291 51.72L588.679 52.1465L585.068 52.5687L581.456 52.9867L577.845 53.4002L574.233 53.8091L570.622 54.2134L567.01 54.613L563.398 55.0078L559.787 55.3976L556.175 55.7823L552.564 56.162L548.952 56.5364L545.341 56.9055L541.729 57.2692L538.118 57.6274L534.506 57.98L530.895 58.327L527.283 58.6682L523.672 59.0036L520.06 59.333L516.449 59.6564L512.837 59.9738L509.226 60.285L505.614 60.5899L502.002 60.8885L498.391 61.1808L494.779 61.4666L491.168 61.7458L487.556 62.0185L483.945 62.2845L480.333 62.5437L476.722 62.7962L473.11 63.0418L469.499 63.2805L465.887 63.5122L462.276 63.7369L458.664 63.9545L455.053 64.1649L451.441 64.3682L447.83 64.5641L444.218 64.7529L440.607 64.9342L436.995 65.1082L433.383 65.2747L429.772 65.4338L426.16 65.5854L422.549 65.7294L418.937 65.8658L415.326 65.9947L411.714 66.1158L408.103 66.2293L404.491 66.3351L400.88 66.4332L397.268 66.5235L393.657 66.606L390.045 66.6808L386.434 66.7477L382.822 66.8068L379.211 66.858L375.599 66.9014L371.987 66.9369L368.376 66.9645L364.764 66.9842L361.153 66.9961L357.541 67L353.93 66.9961L350.318 66.9842L346.707 66.9645L343.095 66.9369L339.484 66.9014L335.872 66.858L332.261 66.8068L328.649 66.7477L325.038 66.6808L321.426 66.606L317.815 66.5235L314.203 66.4332L310.591 66.3351L306.98 66.2293L303.368 66.1158L299.757 65.9947L296.145 65.8658L292.534 65.7294L288.922 65.5854L285.311 65.4338L281.699 65.2747L278.088 65.1082L274.476 64.9342L270.865 64.7529L267.253 64.5641L263.642 64.3682L260.03 64.1649L256.419 63.9545L252.807 63.7369L249.195 63.5122L245.584 63.2805L241.972 63.0418L238.361 62.7962L234.749 62.5437L231.138 62.2845L227.526 62.0185L223.915 61.7458L220.303 61.4666L216.692 61.1808L213.08 60.8885L209.469 60.5899L205.857 60.285L202.246 59.9738L198.634 59.6564L195.023 59.333L191.411 59.0036L187.799 58.6682L184.188 58.327L180.576 57.98L176.965 57.6274L173.353 57.2692L169.742 56.9055L166.13 56.5364L162.519 56.162L158.907 55.7823L155.296 55.3976L151.684 55.0078L148.073 54.613L144.461 54.2134L140.85 53.8091L137.238 53.4002L133.627 52.9867L130.015 52.5687L126.403 52.1465L122.792 51.72L119.18 51.2893L115.569 50.8547L111.957 50.4161L108.346 49.9738L104.734 49.5277L101.123 49.0781L97.5113 48.6249L93.8997 48.1685L90.2882 47.7087L86.6767 47.2459L83.0651 46.78L79.4536 46.3112L75.8421 45.8396L72.2306 45.3654L68.619 44.8885L65.0075 44.4093L61.396 43.9277L57.7844 43.4439L54.1729 42.9581L50.5614 42.4703L46.9499 41.9806L43.3383 41.4892L39.7268 40.9962L36.1153 40.5017L32.5037 40.0059L28.8922 39.5088L25.2807 39.0107L21.6692 38.5115L18.0576 38.0115L14.4461 37.5107L10.8346 37.0093L7.22304 36.5074L3.61151 36.0051L-2.0504e-05 35.5026" stroke="#FF7A00" stroke-width="5" stroke-miterlimit="10" stroke-linecap="round" stroke-linejoin="round"/>
</svg>
