<svg width="1440" height="70" viewBox="0 0 1440 70" fill="none" xmlns="http://www.w3.org/2000/svg">
<path d="M1 35L4.60902 34.4974L8.21805 33.9949L11.8271 33.4926L15.4361 32.9907L19.0451 32.4893L22.6541 31.9885L26.2632 31.4885L29.8722 30.9893L33.4812 30.4912L37.0902 29.9941L40.6992 29.4983L44.3083 29.0038L47.9173 28.5108L51.5263 28.0194L55.1353 27.5298L58.7444 27.0419L62.3534 26.5561L65.9624 26.0723L69.5714 25.5907L73.1805 25.1115L76.7895 24.6346L80.3985 24.1604L84.0075 23.6888L87.6165 23.22L91.2256 22.7541L94.8346 22.2913L98.4436 21.8315L102.053 21.3751L105.662 20.9219L109.271 20.4723L112.88 20.0262L116.489 19.5839L120.098 19.1453L123.707 18.7107L127.316 18.28L130.925 17.8535L134.534 17.4313L138.143 17.0133L141.752 16.5998L145.361 16.1909L148.97 15.7866L152.579 15.387L156.188 14.9922L159.797 14.6024L163.406 14.2177L167.015 13.838L170.624 13.4636L174.233 13.0945L177.842 12.7308L181.451 12.3726L185.06 12.02L188.669 11.673L192.278 11.3318L195.887 10.9964L199.496 10.667L203.105 10.3436L206.714 10.0262L210.323 9.71504L213.932 9.41009L217.541 9.11146L221.15 8.81921L224.759 8.53342L228.368 8.25416L231.977 7.98151L235.586 7.71551L239.195 7.45626L242.805 7.20379L246.414 6.95819L250.023 6.7195L253.632 6.48779L257.241 6.26312L260.85 6.04553L264.459 5.8351L268.068 5.63185L271.677 5.43586L275.286 5.24715L278.895 5.06579L282.504 4.89182L286.113 4.72527L289.722 4.56619L293.331 4.41462L296.94 4.2706L300.549 4.13416L304.158 4.00534L307.767 3.88416L311.376 3.77066L314.985 3.66487L318.594 3.56681L322.203 3.4765L325.812 3.39397L329.421 3.31924L333.03 3.25233L336.639 3.19325L340.248 3.14202L343.857 3.09865L347.466 3.06314L351.075 3.03552L354.684 3.01579L358.293 3.00395L361.902 3L365.511 3.00395L369.12 3.01579L372.729 3.03552L376.338 3.06314L379.947 3.09865L383.556 3.14202L387.165 3.19325L390.774 3.25233L394.383 3.31924L397.992 3.39397L401.602 3.4765L405.211 3.56681L408.82 3.66487L412.429 3.77066L416.038 3.88416L419.647 4.00534L423.256 4.13416L426.865 4.2706L430.474 4.41462L434.083 4.56619L437.692 4.72527L441.301 4.89182L444.91 5.06579L448.519 5.24715L452.128 5.43586L455.737 5.63185L459.346 5.8351L462.955 6.04553L466.564 6.26312L470.173 6.48779L473.782 6.7195L477.391 6.95819L481 7.20379L484.609 7.45626L488.218 7.71551L491.827 7.98151L495.436 8.25416L499.045 8.53342L502.654 8.81921L506.263 9.11146L509.872 9.41009L513.481 9.71504L517.09 10.0262L520.699 10.3436L524.308 10.667L527.917 10.9964L531.526 11.3318L535.135 11.673L538.744 12.02L542.353 12.3726L545.962 12.7308L549.571 13.0945L553.18 13.4636L556.789 13.838L560.399 14.2177L564.008 14.6024L567.617 14.9922L571.226 15.387L574.835 15.7866L578.444 16.1909L582.053 16.5998L585.662 17.0133L589.271 17.4313L592.88 17.8535L596.489 18.28L600.098 18.7107L603.707 19.1453L607.316 19.5839L610.925 20.0262L614.534 20.4723L618.143 20.9219L621.752 21.3751L625.361 21.8315L628.97 22.2913L632.579 22.7541L636.188 23.22L639.797 23.6888L643.406 24.1604L647.015 24.6346L650.624 25.1115L654.233 25.5907L657.842 26.0723L661.451 26.5561L665.06 27.0419L668.669 27.5298L672.278 28.0194L675.887 28.5108L679.496 29.0038L683.105 29.4983L686.714 29.9941L690.323 30.4912L693.932 30.9893L697.541 31.4885L701.15 31.9885L704.759 32.4893L708.368 32.9907L711.977 33.4926L715.586 33.9949L719.196 34.4974L722.805 35L726.414 35.5026L730.023 36.0051L733.632 36.5074L737.241 37.0093L740.85 37.5107L744.459 38.0115L748.068 38.5115L751.677 39.0107L755.286 39.5088L758.895 40.0059L762.504 40.5017L766.113 40.9962L769.722 41.4892L773.331 41.9806L776.94 42.4703L780.549 42.9581L784.158 43.4439L787.767 43.9277L791.376 44.4093L794.985 44.8885L798.594 45.3654L802.203 45.8396L805.812 46.3112L809.421 46.78L813.03 47.2459L816.639 47.7087L820.248 48.1685L823.857 48.6249L827.466 49.0781L831.075 49.5277L834.684 49.9738L838.293 50.4161L841.902 50.8547L845.511 51.2893L849.12 51.72L852.729 52.1465L856.338 52.5687L859.947 52.9867L863.556 53.4002L867.165 53.8091L870.774 54.2134L874.383 54.613L877.992 55.0078L881.602 55.3976L885.211 55.7823L888.82 56.162L892.429 56.5364L896.038 56.9055L899.647 57.2692L903.256 57.6274L906.865 57.98L910.474 58.327L914.083 58.6682L917.692 59.0036L921.301 59.333L924.91 59.6564L928.519 59.9738L932.128 60.285L935.737 60.5899L939.346 60.8885L942.955 61.1808L946.564 61.4666L950.173 61.7458L953.782 62.0185L957.391 62.2845L961 62.5437L964.609 62.7962L968.218 63.0418L971.827 63.2805L975.436 63.5122L979.045 63.7369L982.654 63.9545L986.263 64.1649L989.872 64.3682L993.481 64.5641L997.09 64.7529L1000.7 64.9342L1004.31 65.1082L1007.92 65.2747L1011.53 65.4338L1015.14 65.5854L1018.74 65.7294L1022.35 65.8658L1025.96 65.9947L1029.57 66.1158L1033.18 66.2293L1036.79 66.3351L1040.4 66.4332L1044.01 66.5235L1047.62 66.606L1051.23 66.6808L1054.83 66.7477L1058.44 66.8068L1062.05 66.858L1065.66 66.9014L1069.27 66.9369L1072.88 66.9645L1076.49 66.9842L1080.1 66.9961L1083.71 67L1087.32 66.9961L1090.92 66.9842L1094.53 66.9645L1098.14 66.9369L1101.75 66.9014L1105.36 66.858L1108.97 66.8068L1112.58 66.7477L1116.19 66.6808L1119.8 66.606L1123.41 66.5235L1127.02 66.4332L1130.62 66.3351L1134.23 66.2293L1137.84 66.1158L1141.45 65.9947L1145.06 65.8658L1148.67 65.7294L1152.28 65.5854L1155.89 65.4338L1159.5 65.2747L1163.11 65.1082L1166.71 64.9342L1170.32 64.7529L1173.93 64.5641L1177.54 64.3682L1181.15 64.1649L1184.76 63.9545L1188.37 63.7369L1191.98 63.5122L1195.59 63.2805L1199.2 63.0418L1202.8 62.7962L1206.41 62.5437L1210.02 62.2845L1213.63 62.0185L1217.24 61.7458L1220.85 61.4666L1224.46 61.1808L1228.07 60.8885L1231.68 60.5899L1235.29 60.285L1238.89 59.9738L1242.5 59.6564L1246.11 59.333L1249.72 59.0036L1253.33 58.6682L1256.94 58.327L1260.55 57.98L1264.16 57.6274L1267.77 57.2692L1271.38 56.9055L1274.98 56.5364L1278.59 56.162L1282.2 55.7823L1285.81 55.3976L1289.42 55.0078L1293.03 54.613L1296.64 54.2134L1300.25 53.8091L1303.86 53.4002L1307.47 52.9867L1311.08 52.5687L1314.68 52.1465L1318.29 51.72L1321.9 51.2893L1325.51 50.8547L1329.12 50.4161L1332.73 49.9738L1336.34 49.5277L1339.95 49.0781L1343.56 48.6249L1347.17 48.1685L1350.77 47.7087L1354.38 47.2459L1357.99 46.78L1361.6 46.3112L1365.21 45.8396L1368.82 45.3654L1372.43 44.8885L1376.04 44.4093L1379.65 43.9277L1383.26 43.4439L1386.86 42.9581L1390.47 42.4703L1394.08 41.9806L1397.69 41.4892L1401.3 40.9962L1404.91 40.5017L1408.52 40.0059L1412.13 39.5088L1415.74 39.0107L1419.35 38.5115L1422.95 38.0115L1426.56 37.5107L1430.17 37.0093L1433.78 36.5074L1437.39 36.0051L1441 35.5026" stroke="#FF7A00" stroke-width="5" stroke-miterlimit="10" stroke-linecap="round" stroke-linejoin="round"/>
</svg>
