<svg width="3232" height="168" viewBox="0 0 3232 168" fill="none" xmlns="http://www.w3.org/2000/svg">
<path d="M20 84L28 82.9948L36 81.9897L44 80.9852L52 79.9814L60 78.9786L68 77.9771L76 76.977L84 75.9787L92 74.9823L100 73.9882L108 72.9965L116 72.0076L124 71.0216L132 70.0388L140 69.0595L148 68.0839L156 67.1121L164 66.1446L172 65.1814L180 64.2229L188 63.2693L196 62.3208L204 61.3776L212 60.44L220 59.5082L228 58.5825L236 57.6631L244 56.7501L252 55.8439L260 54.9446L268 54.0525L276 53.1678L284 52.2906L292 51.4213L300 50.5601L308 49.7071L316 48.8625L324 48.0267L332 47.1996L340 46.3817L348 45.5731L356 44.7739L364 43.9845L372 43.2049L380 42.4353L388 41.676L396 40.9272L404 40.189L412 39.4616L420 38.7452L428 38.0399L436 37.346L444 36.6636L452 35.9929L460 35.334L468 34.6871L476 34.0524L484 33.4301L492 32.8202L500 32.2229L508 31.6384L516 31.0668L524 30.5083L532 29.963L540 29.431L548 28.9125L556 28.4076L564 27.9164L572 27.439L580 26.9756L588 26.5262L596 26.0911L604 25.6702L612 25.2637L620 24.8717L628 24.4943L636 24.1316L644 23.7836L652 23.4506L660 23.1324L668 22.8292L676 22.5412L684 22.2683L692 22.0107L700 21.7683L708 21.5413L716 21.3297L724 21.1336L732 20.953L740 20.788L748 20.6385L756 20.5046L764 20.3865L772 20.2841L780 20.1973L788 20.1263L796 20.071L804 20.0316L812 20.0079L820 20L828 20.0079L836 20.0316L844 20.071L852 20.1263L860 20.1973L868 20.2841L876 20.3865L884 20.5046L892 20.6385L900 20.788L908 20.953L916 21.1336L924 21.3297L932 21.5413L940 21.7683L948 22.0107L956 22.2683L964 22.5412L972 22.8292L980 23.1324L988 23.4506L996 23.7836L1004 24.1316L1012 24.4943L1020 24.8717L1028 25.2637L1036 25.6702L1044 26.0911L1052 26.5262L1060 26.9756L1068 27.439L1076 27.9164L1084 28.4076L1092 28.9125L1100 29.431L1108 29.963L1116 30.5083L1124 31.0668L1132 31.6384L1140 32.2229L1148 32.8202L1156 33.4301L1164 34.0524L1172 34.6871L1180 35.334L1188 35.9929L1196 36.6636L1204 37.346L1212 38.0399L1220 38.7452L1228 39.4616L1236 40.189L1244 40.9272L1252 41.676L1260 42.4353L1268 43.2049L1276 43.9845L1284 44.7739L1292 45.5731L1300 46.3817L1308 47.1996L1316 48.0267L1324 48.8625L1332 49.7071L1340 50.5601L1348 51.4213L1356 52.2906L1364 53.1678L1372 54.0525L1380 54.9446L1388 55.8439L1396 56.7501L1404 57.6631L1412 58.5825L1420 59.5082L1428 60.44L1436 61.3776L1444 62.3208L1452 63.2693L1460 64.2229L1468 65.1814L1476 66.1446L1484 67.1121L1492 68.0839L1500 69.0595L1508 70.0388L1516 71.0216L1524 72.0076L1532 72.9965L1540 73.9882L1548 74.9823L1556 75.9787L1564 76.977L1572 77.9771L1580 78.9786L1588 79.9814L1596 80.9852L1604 81.9897L1612 82.9948L1620 84L1628 85.0052L1636 86.0103L1644 87.0148L1652 88.0186L1660 89.0214L1668 90.0229L1676 91.023L1684 92.0213L1692 93.0177L1700 94.0118L1708 95.0035L1716 95.9924L1724 96.9784L1732 97.9612L1740 98.9405L1748 99.9161L1756 100.888L1764 101.855L1772 102.819L1780 103.777L1788 104.731L1796 105.679L1804 106.622L1812 107.56L1820 108.492L1828 109.417L1836 110.337L1844 111.25L1852 112.156L1860 113.055L1868 113.948L1876 114.832L1884 115.709L1892 116.579L1900 117.44L1908 118.293L1916 119.137L1924 119.973L1932 120.8L1940 121.618L1948 122.427L1956 123.226L1964 124.016L1972 124.795L1980 125.565L1988 126.324L1996 127.073L2004 127.811L2012 128.538L2020 129.255L2028 129.96L2036 130.654L2044 131.336L2052 132.007L2060 132.666L2068 133.313L2076 133.948L2084 134.57L2092 135.18L2100 135.777L2108 136.362L2116 136.933L2124 137.492L2132 138.037L2140 138.569L2148 139.087L2156 139.592L2164 140.084L2172 140.561L2180 141.024L2188 141.474L2196 141.909L2204 142.33L2212 142.736L2220 143.128L2228 143.506L2236 143.868L2244 144.216L2252 144.549L2260 144.868L2268 145.171L2276 145.459L2284 145.732L2292 145.989L2300 146.232L2308 146.459L2316 146.67L2324 146.866L2332 147.047L2340 147.212L2348 147.362L2356 147.495L2364 147.614L2372 147.716L2380 147.803L2388 147.874L2396 147.929L2404 147.968L2412 147.992L2420 148L2428 147.992L2436 147.968L2444 147.929L2452 147.874L2460 147.803L2468 147.716L2476 147.614L2484 147.495L2492 147.362L2500 147.212L2508 147.047L2516 146.866L2524 146.67L2532 146.459L2540 146.232L2548 145.989L2556 145.732L2564 145.459L2572 145.171L2580 144.868L2588 144.549L2596 144.216L2604 143.868L2612 143.506L2620 143.128L2628 142.736L2636 142.33L2644 141.909L2652 141.474L2660 141.024L2668 140.561L2676 140.084L2684 139.592L2692 139.087L2700 138.569L2708 138.037L2716 137.492L2724 136.933L2732 136.362L2740 135.777L2748 135.18L2756 134.57L2764 133.948L2772 133.313L2780 132.666L2788 132.007L2796 131.336L2804 130.654L2812 129.96L2820 129.255L2828 128.538L2836 127.811L2844 127.073L2852 126.324L2860 125.565L2868 124.795L2876 124.016L2884 123.226L2892 122.427L2900 121.618L2908 120.8L2916 119.973L2924 119.137L2932 118.293L2940 117.44L2948 116.579L2956 115.709L2964 114.832L2972 113.948L2980 113.055L2988 112.156L2996 111.25L3004 110.337L3012 109.417L3020 108.492L3028 107.56L3036 106.622L3044 105.679L3052 104.731L3060 103.777L3068 102.819L3076 101.855L3084 100.888L3092 99.9161L3100 98.9405L3108 97.9612L3116 96.9784L3124 95.9924L3132 95.0035L3140 94.0118L3148 93.0177L3156 92.0213L3164 91.023L3172 90.0229L3180 89.0214L3188 88.0186L3196 87.0148L3204 86.0103L3212 85.0052" stroke="#FF7A00" stroke-width="40" stroke-miterlimit="10" stroke-linecap="round" stroke-linejoin="round"/>
</svg>
