<svg width="400" height="16" viewBox="0 0 400 16" fill="none" xmlns="http://www.w3.org/2000/svg">
<path d="M0 8L1 7.90575L2 7.81154L3 7.71736L4 7.62326L5 7.52924L6 7.43535L7 7.34159L8 7.248L9 7.15459L10 7.06139L11 6.96842L12 6.87571L13 6.78328L14 6.69114L15 6.59933L16 6.50786L17 6.41676L18 6.32605L19 6.23576L20 6.1459L21 6.0565L22 5.96758L23 5.87915L24 5.79125L25 5.7039L26 5.61711L27 5.53091L28 5.44533L29 5.36037L30 5.27605L31 5.19242L32 5.10947L33 5.02724L34 4.94576L35 4.86501L36 4.78504L37 4.70586L38 4.6275L39 4.54996L40 4.47329L41 4.39748L42 4.32256L43 4.24854L44 4.17545L45 4.10331L46 4.03213L47 3.96192L48 3.89272L49 3.82452L50 3.75736L51 3.69124L52 3.62619L53 3.56221L54 3.49934L55 3.43756L56 3.37692L57 3.31742L58 3.25907L59 3.20189L60 3.1459L61 3.0911L62 3.03751L63 2.98515L64 2.93404L65 2.88416L66 2.83555L67 2.78821L68 2.74216L69 2.6974L70 2.65396L71 2.61183L72 2.57104L73 2.53158L74 2.49347L75 2.45673L76 2.42134L77 2.38734L78 2.35471L79 2.32349L80 2.29366L81 2.26524L82 2.23824L83 2.21265L84 2.1885L85 2.16578L86 2.1445L87 2.12466L88 2.10628L89 2.08935L90 2.07387L91 2.05986L92 2.04731L93 2.03623L94 2.02663L95 2.01849L96 2.01184L97 2.00666L98 2.00296L99 2.00074L100 2L101 2.00074L102 2.00296L103 2.00666L104 2.01184L105 2.01849L106 2.02663L107 2.03623L108 2.04731L109 2.05986L110 2.07387L111 2.08935L112 2.10628L113 2.12466L114 2.1445L115 2.16578L116 2.1885L117 2.21265L118 2.23824L119 2.26524L120 2.29366L121 2.32349L122 2.35471L123 2.38734L124 2.42134L125 2.45673L126 2.49347L127 2.53158L128 2.57104L129 2.61183L130 2.65396L131 2.6974L132 2.74216L133 2.78821L134 2.83555L135 2.88416L136 2.93404L137 2.98515L138 3.03751L139 3.0911L140 3.1459L141 3.20189L142 3.25907L143 3.31742L144 3.37692L145 3.43756L146 3.49934L147 3.56221L148 3.62619L149 3.69124L150 3.75736L151 3.82452L152 3.89272L153 3.96192L154 4.03213L155 4.10331L156 4.17545L157 4.24854L158 4.32256L159 4.39748L160 4.47329L161 4.54996L162 4.6275L163 4.70586L164 4.78504L165 4.86501L166 4.94576L167 5.02724L168 5.10947L169 5.19242L170 5.27605L171 5.36037L172 5.44533L173 5.53091L174 5.61711L175 5.7039L176 5.79125L177 5.87915L178 5.96758L179 6.0565L180 6.1459L181 6.23576L182 6.32605L183 6.41676L184 6.50786L185 6.59933L186 6.69114L187 6.78328L188 6.87571L189 6.96842L190 7.06139L191 7.15459L192 7.248L193 7.34159L194 7.43535L195 7.52924L196 7.62326L197 7.71736L198 7.81154L199 7.90575L200 8L201 8.09425L202 8.18846L203 8.28264L204 8.37674L205 8.47076L206 8.56465L207 8.65841L208 8.752L209 8.84541L210 8.93861L211 9.03158L212 9.12429L213 9.21672L214 9.30886L215 9.40067L216 9.49214L217 9.58324L218 9.67395L219 9.76424L220 9.8541L221 9.9435L222 10.0324L223 10.1208L224 10.2087L225 10.2961L226 10.3829L227 10.4691L228 10.5547L229 10.6396L230 10.7239L231 10.8076L232 10.8905L233 10.9728L234 11.0542L235 11.135L236 11.215L237 11.2941L238 11.3725L239 11.45L240 11.5267L241 11.6025L242 11.6774L243 11.7515L244 11.8245L245 11.8967L246 11.9679L247 12.0381L248 12.1073L249 12.1755L250 12.2426L251 12.3088L252 12.3738L253 12.4378L254 12.5007L255 12.5624L256 12.6231L257 12.6826L258 12.7409L259 12.7981L260 12.8541L261 12.9089L262 12.9625L263 13.0148L264 13.066L265 13.1158L266 13.1645L267 13.2118L268 13.2578L269 13.3026L270 13.346L271 13.3882L272 13.429L273 13.4684L274 13.5065L275 13.5433L276 13.5787L277 13.6127L278 13.6453L279 13.6765L280 13.7063L281 13.7348L282 13.7618L283 13.7873L284 13.8115L285 13.8342L286 13.8555L287 13.8753L288 13.8937L289 13.9107L290 13.9261L291 13.9401L292 13.9527L293 13.9638L294 13.9734L295 13.9815L296 13.9882L297 13.9933L298 13.997L299 13.9993L300 14L301 13.9993L302 13.997L303 13.9933L304 13.9882L305 13.9815L306 13.9734L307 13.9638L308 13.9527L309 13.9401L310 13.9261L311 13.9107L312 13.8937L313 13.8753L314 13.8555L315 13.8342L316 13.8115L317 13.7873L318 13.7618L319 13.7348L320 13.7063L321 13.6765L322 13.6453L323 13.6127L324 13.5787L325 13.5433L326 13.5065L327 13.4684L328 13.429L329 13.3882L330 13.346L331 13.3026L332 13.2578L333 13.2118L334 13.1645L335 13.1158L336 13.066L337 13.0148L338 12.9625L339 12.9089L340 12.8541L341 12.7981L342 12.7409L343 12.6826L344 12.6231L345 12.5624L346 12.5007L347 12.4378L348 12.3738L349 12.3088L350 12.2426L351 12.1755L352 12.1073L353 12.0381L354 11.9679L355 11.8967L356 11.8245L357 11.7515L358 11.6774L359 11.6025L360 11.5267L361 11.45L362 11.3725L363 11.2941L364 11.215L365 11.135L366 11.0542L367 10.9728L368 10.8905L369 10.8076L370 10.7239L371 10.6396L372 10.5547L373 10.4691L374 10.3829L375 10.2961L376 10.2087L377 10.1208L378 10.0324L379 9.9435L380 9.8541L381 9.76424L382 9.67395L383 9.58324L384 9.49214L385 9.40067L386 9.30886L387 9.21672L388 9.12429L389 9.03158L390 8.93861L391 8.84541L392 8.752L393 8.65841L394 8.56465L395 8.47076L396 8.37674L397 8.28264L398 8.18846L399 8.09425" stroke="#FF7A00" stroke-width="4" stroke-miterlimit="10" stroke-linecap="round" stroke-linejoin="round"/>
</svg>
