<?xml version="1.0" encoding="utf-8"?>
<!-- Generator: Adobe Illustrator 22.1.0, SVG Export Plug-In . SVG Version: 6.00 Build 0)  -->
<svg version="1.1" id="Layer_3" xmlns="http://www.w3.org/2000/svg" xmlns:xlink="http://www.w3.org/1999/xlink" x="0px" y="0px"
	 viewBox="0 0 2465 802" style="enable-background:new 0 0 2465 802;" xml:space="preserve">
<style type="text/css">
	.st0{fill:#FFFFFF;}
	.st1{fill:#C01722;}
	.st2{fill:#650A0A;}
</style>
<g>
	<path class="st0" d="M732.3,224c-0.1,0-0.1,0-0.2,0c-58.5-4.1-102.2,31.8-102.2,91.7v178.8h-95.2V137.4l100.1,0
		c1.4,17-1.6,36.5-8,51.2c0.4-0.7,0.7-1.4,1.1-2c5-10,11.7-19,19.7-26.8c0,0,0.1-0.1,0.1-0.1c0.8-0.8,1.6-1.6,2.5-2.3
		c6.4-5.8,13.4-10.7,21.3-14.6c0.2-0.1,0.5-0.2,0.7-0.3c0.6-0.3,1.3-0.6,1.9-0.9c0.6-0.3,1.2-0.6,1.8-0.9l0,0.1
		c22.9-10,51.6-11.8,86-2.6l-11,88.6c-1.7-0.4-3.4-0.7-5.1-0.9c-0.6-0.1-1.2-0.2-1.8-0.3c-1.6-0.2-3.1-0.5-4.6-0.6
		c-0.5-0.1-1-0.1-1.6-0.2C735.9,224.3,734.1,224.2,732.3,224z M1412,137.4h-95.2v357.1h95.2V137.4z M1412,5.5h-95.2v71.4h95.2V5.5z
		 M928.4,5.5h-95.2v71.4h95.2V5.5z M2451.7,5.5h-95.2v489h95.2V5.5z M1228.8,219.9v-82.5h-117.2V5.5h-95.2v337
		c0,50.5,8.1,82.1,26.4,106.2c24.2,32.2,65.9,51.3,123.1,51.3c18.3,0,48.7-3.4,61.2-7.8l-18.9-79.6c-6.6,1.5-22.5,3.1-36.4,3.1
		c-23.4,0-38.8-6.6-48.4-17.6c-8.1-9.5-11.7-22.7-11.7-44.7V219.9H1228.8z M2257.5,137.4v357.1h-95.2v-20.7
		c-27.7,16.6-60,26.2-94.6,26.2c-101.7,0-184.1-82.4-184.1-184.1s82.4-184.1,184.1-184.1c34.6,0,67,9.6,94.6,26.2v-20.7H2257.5z
		 M2163.8,315.9c0-53.1-43-96.2-96.2-96.2c-53.1,0-96.2,43-96.2,96.2c0,53.1,43,96.2,96.2,96.2
		C2120.7,412.1,2163.8,369,2163.8,315.9z M1757.5,372.4c-17.5,24-45.8,39.6-77.8,39.6c-53.1,0-96.2-43-96.2-96.2s43-96.2,96.2-96.2
		c32,0,60.3,15.6,77.8,39.6l71.1-51.7c-33.5-46-87.7-75.9-148.9-75.9c-101.7,0-184.1,82.4-184.1,184.1S1578.1,500,1679.7,500
		c61.2,0,115.4-29.9,148.9-75.9L1757.5,372.4z M928.4,137.4h-95.2v357.1h95.2V137.4z M375.2,341c-28.1,38.7-73.7,63.8-125.2,63.8
		c-85.5,0-154.8-69.3-154.8-154.8S164.5,95.2,250,95.2c51.5,0,97.1,25.2,125.2,63.8l77.1-56C406.8,40.6,333.1,0,250,0
		C111.9,0,0,111.9,0,250s111.9,250,250,250c83.1,0,156.8-40.6,202.3-103.1L375.2,341z"/>
	<path class="st0" d="M1279.2,684.1c-18.3,0-30.4,7.7-30.4,20.2c0,10.9,9.2,16,26.2,18l15.2,1.9c27.3,3.7,43.2,14.8,43.2,35.8
		c0,24.4-22,39.8-56.6,39.8c-16.6,0-37.3-4.2-53.6-16.4l9.4-15.2c9.8,7.6,22.8,14,44.5,14s35.4-7.2,35.4-20.8
		c0-10.3-8.5-16.6-26.9-18.7l-15.3-1.8c-29.2-3.7-42.5-16.4-42.5-35.6c0-24.4,20.4-38.9,51.3-38.9c20.2,0,38.5,5.7,51,14l-8.8,15.7
		C1313.1,690.5,1296.6,684.1,1279.2,684.1z M1503.4,733.1c0,38.1-29,66.9-67.7,66.9c-38.7,0-67.6-28.8-67.6-66.9
		c0-38,28.9-66.8,67.6-66.8C1474.3,666.3,1503.4,695.1,1503.4,733.1z M1388.7,733.1c0,27.7,20.4,47.9,47,47.9
		c26.6,0,47-20.2,47-47.9s-20.4-47.8-47-47.8C1409.1,685.3,1388.7,705.4,1388.7,733.1z M1581.8,687.2v110.2h-20.4V687.2h-29.3v-18.3
		h29.3v-22c0-27.4,12.3-47.5,42.7-47.5c14.7,0,25.9,4.1,35.1,9.6l-7.3,17c-6.9-4.2-16.7-7.6-26.5-7.6c-16.7,0-23.7,10.4-23.7,28.5
		v22h51.2v18.3H1581.8z M1703,687.2v64.9c0,20.1,10.7,28.9,25.5,28.9c9.9,0,19.4-3.7,27-9.1l9.5,15.3c-9.8,7.5-22.3,12.8-38.1,12.8
		c-27.7,0-44.1-15.2-44.1-47.5v-65.3h-28.1v-18.3h28.1v-40.8h20.2v40.8h55.5v18.3H1703z M1983.7,668.9h21l-47.5,128.5h-24
		l-38.4-106.8l-38.3,106.8h-23.6l-47.5-128.5h21.6l38.4,107.3l38.3-107.3h22.8l38.5,107.5L1983.7,668.9z M2144.5,797.4v-19.1
		c-10.3,13.2-25.6,21.7-47,21.7c-36.2,0-64.2-28.2-64.2-66.9c0-38.5,28-66.8,64.2-66.8c21.3,0,36.6,8.7,47,21.7v-19.1h20.2v128.5
		H2144.5z M2054,733.1c0,26.6,18.7,47.9,46,47.9c26.7,0,45.7-20.6,45.7-47.9c0-27.1-19-47.8-45.7-47.8
		C2072.4,685.3,2054,706.6,2054,733.1z M2302.9,670.7l-4.9,19.9c-6.4-3.4-14.7-5.2-22.3-5.2c-20.1,0-34.5,15.7-34.5,40v71.9h-20.2
		V668.9h20.1v18c8.8-13.2,22.3-20.6,38.1-20.6C2288.6,666.3,2296,667.6,2302.9,670.7z M2451.7,732.7c0,2.9-0.1,5.3-0.4,7.6h-103
		c2.8,27.7,22.3,41.9,45.5,41.9c15.9,0,29.7-6,40.7-16.1l10.9,13.8c-16,15.3-33.8,20.1-52.8,20.1c-38,0-65-27-65-66.8
		c0-39.4,27.3-66.9,63.8-66.9C2426.1,666.3,2451.3,693.6,2451.7,732.7z M2348.5,723.9h82.5c-2.6-24-18.3-39.5-40.2-39.5
		C2367.1,684.4,2351.8,700.7,2348.5,723.9z"/>
</g>
</svg>
