<svg width="448" height="20" viewBox="0 0 448 20" fill="none" xmlns="http://www.w3.org/2000/svg">
<path d="M459 10L457.855 9.87434L456.709 9.74871L455.564 9.62315L454.419 9.49768L453.273 9.37233L452.128 9.24713L450.982 9.12213L449.837 8.99733L448.692 8.87279L447.546 8.74852L446.401 8.62457L445.256 8.50095L444.11 8.3777L442.965 8.25485L441.82 8.13244L440.674 8.01048L439.529 7.88902L438.383 7.76807L437.238 7.64768L436.093 7.52786L434.947 7.40866L433.802 7.2901L432.657 7.1722L431.511 7.055L430.366 6.93853L429.221 6.82282L428.075 6.70789L426.93 6.59377L425.784 6.48049L424.639 6.36808L423.494 6.25656L422.348 6.14597L421.203 6.03633L420.058 5.92767L418.912 5.82001L417.767 5.71339L416.622 5.60782L415.476 5.50333L414.331 5.39996L413.185 5.29772L412.04 5.19664L410.895 5.09674L409.749 4.99806L408.604 4.90061L407.459 4.80442L406.313 4.70951L405.168 4.6159L404.023 4.52362L402.877 4.4327L401.732 4.34315L400.586 4.25499L399.441 4.16825L398.296 4.08295L397.15 3.99911L396.005 3.91675L394.86 3.83589L393.714 3.75656L392.569 3.67876L391.424 3.60252L390.278 3.52786L389.133 3.4548L387.987 3.38336L386.842 3.31354L385.697 3.24538L384.551 3.17888L383.406 3.11406L382.261 3.05095L381.115 2.98955L379.97 2.92987L378.825 2.87195L377.679 2.81578L376.534 2.76138L375.388 2.70877L374.243 2.65796L373.098 2.60896L371.952 2.56179L370.807 2.51645L369.662 2.47295L368.516 2.43132L367.371 2.39155L366.226 2.35366L365.08 2.31765L363.935 2.28354L362.789 2.25133L361.644 2.22104L360.499 2.19267L359.353 2.16622L358.208 2.1417L357.063 2.11913L355.917 2.09849L354.772 2.07981L353.627 2.06308L352.481 2.04831L351.336 2.0355L350.19 2.02466L349.045 2.01579L347.9 2.00888L346.754 2.00395L345.609 2.00099L344.464 2L343.318 2.00099L342.173 2.00395L341.028 2.00888L339.882 2.01579L338.737 2.02466L337.591 2.0355L336.446 2.04831L335.301 2.06308L334.155 2.07981L333.01 2.09849L331.865 2.11913L330.719 2.1417L329.574 2.16622L328.429 2.19267L327.283 2.22104L326.138 2.25133L324.992 2.28354L323.847 2.31765L322.702 2.35366L321.556 2.39155L320.411 2.43132L319.266 2.47295L318.12 2.51645L316.975 2.56179L315.83 2.60896L314.684 2.65796L313.539 2.70877L312.393 2.76138L311.248 2.81578L310.103 2.87195L308.957 2.92987L307.812 2.98955L306.667 3.05095L305.521 3.11406L304.376 3.17888L303.231 3.24538L302.085 3.31354L300.94 3.38336L299.794 3.4548L298.649 3.52786L297.504 3.60252L296.358 3.67876L295.213 3.75656L294.068 3.83589L292.922 3.91675L291.777 3.99911L290.632 4.08295L289.486 4.16825L288.341 4.25499L287.195 4.34315L286.05 4.4327L284.905 4.52362L283.759 4.6159L282.614 4.70951L281.469 4.80442L280.323 4.90061L279.178 4.99806L278.033 5.09674L276.887 5.19664L275.742 5.29772L274.596 5.39996L273.451 5.50333L272.306 5.60782L271.16 5.71339L270.015 5.82001L268.87 5.92767L267.724 6.03633L266.579 6.14597L265.434 6.25656L264.288 6.36808L263.143 6.48049L261.997 6.59377L260.852 6.70789L259.707 6.82282L258.561 6.93853L257.416 7.055L256.271 7.1722L255.125 7.2901L253.98 7.40866L252.835 7.52786L251.689 7.64768L250.544 7.76807L249.398 7.88902L248.253 8.01048L247.108 8.13244L245.962 8.25485L244.817 8.3777L243.672 8.50095L242.526 8.62457L241.381 8.74852L240.236 8.87279L239.09 8.99733L237.945 9.12213L236.799 9.24713L235.654 9.37233L234.509 9.49768L233.363 9.62315L232.218 9.74871L231.073 9.87434L229.927 10L228.782 10.1257L227.637 10.2513L226.491 10.3769L225.346 10.5023L224.2 10.6277L223.055 10.7529L221.91 10.8779L220.764 11.0027L219.619 11.1272L218.474 11.2515L217.328 11.3754L216.183 11.4991L215.038 11.6223L213.892 11.7451L212.747 11.8676L211.601 11.9895L210.456 12.111L209.311 12.2319L208.165 12.3523L207.02 12.4721L205.875 12.5913L204.729 12.7099L203.584 12.8278L202.439 12.945L201.293 13.0615L200.148 13.1772L199.002 13.2921L197.857 13.4062L196.712 13.5195L195.566 13.6319L194.421 13.7434L193.276 13.854L192.13 13.9637L190.985 14.0723L189.84 14.18L188.694 14.2866L187.549 14.3922L186.403 14.4967L185.258 14.6L184.113 14.7023L182.967 14.8034L181.822 14.9033L180.677 15.0019L179.531 15.0994L178.386 15.1956L177.241 15.2905L176.095 15.3841L174.95 15.4764L173.805 15.5673L172.659 15.6569L171.514 15.745L170.368 15.8317L169.223 15.917L168.078 16.0009L166.932 16.0832L165.787 16.1641L164.642 16.2434L163.496 16.3212L162.351 16.3975L161.206 16.4721L160.06 16.5452L158.915 16.6166L157.769 16.6865L156.624 16.7546L155.479 16.8211L154.333 16.8859L153.188 16.9491L152.043 17.0105L150.897 17.0701L149.752 17.1281L148.607 17.1842L147.461 17.2386L146.316 17.2912L145.17 17.342L144.025 17.391L142.88 17.4382L141.734 17.4836L140.589 17.527L139.444 17.5687L138.298 17.6085L137.153 17.6463L136.008 17.6824L134.862 17.7165L133.717 17.7487L132.571 17.779L131.426 17.8073L130.281 17.8338L129.135 17.8583L127.99 17.8809L126.845 17.9015L125.699 17.9202L124.554 17.9369L123.409 17.9517L122.263 17.9645L121.118 17.9753L119.972 17.9842L118.827 17.9911L117.682 17.9961L116.536 17.999L115.391 18L114.246 17.999L113.1 17.9961L111.955 17.9911L110.81 17.9842L109.664 17.9753L108.519 17.9645L107.373 17.9517L106.228 17.9369L105.083 17.9202L103.937 17.9015L102.792 17.8809L101.647 17.8583L100.501 17.8338L99.3559 17.8073L98.2105 17.779L97.0651 17.7487L95.9198 17.7165L94.7744 17.6824L93.6291 17.6463L92.4837 17.6085L91.3383 17.5687L90.193 17.527L89.0476 17.4836L87.9022 17.4382L86.7569 17.391L85.6115 17.342L84.4662 17.2912L83.3208 17.2386L82.1754 17.1842L81.0301 17.1281L79.8847 17.0701L78.7393 17.0105L77.594 16.9491L76.4486 16.8859L75.3032 16.8211L74.1579 16.7546L73.0125 16.6865L71.8672 16.6166L70.7218 16.5452L69.5764 16.4721L68.4311 16.3975L67.2857 16.3212L66.1403 16.2434L64.995 16.1641L63.8496 16.0832L62.7042 16.0009L61.5589 15.917L60.4135 15.8317L59.2682 15.745L58.1228 15.6569L56.9774 15.5673L55.8321 15.4764L54.6867 15.3841L53.5413 15.2905L52.396 15.1956L51.2506 15.0994L50.1052 15.0019L48.9599 14.9033L47.8145 14.8034L46.6692 14.7023L45.5238 14.6L44.3784 14.4967L43.2331 14.3922L42.0877 14.2866L40.9423 14.18L39.797 14.0723L38.6516 13.9637L37.5063 13.854L36.3609 13.7434L35.2155 13.6319L34.0702 13.5195L32.9248 13.4062L31.7794 13.2921L30.6341 13.1772L29.4887 13.0615L28.3433 12.945L27.198 12.8278L26.0526 12.7099L24.9073 12.5913L23.7619 12.4721L22.6165 12.3523L21.4712 12.2319L20.3258 12.111L19.1804 11.9895L18.0351 11.8676L16.8897 11.7451L15.7443 11.6223L14.599 11.4991L13.4536 11.3754L12.3083 11.2515L11.1629 11.1272L10.0175 11.0027L8.87216 10.8779L7.7268 10.7529L6.58144 10.6277L5.43607 10.5023L4.29071 10.3769L3.14535 10.2513L1.99998 10.1257" stroke="#FF7A00" stroke-width="4" stroke-miterlimit="10" stroke-linecap="round" stroke-linejoin="round"/>
</svg>
